<svg xmlns="http://www.w3.org/2000/svg" width="300" height="300" viewBox="0 0 300 300">
  <circle cx="142.6" cy="141" r="110" fill="#7a5cc7" fill-opacity="0.1"/>
  <circle cx="142.6" cy="141" r="92" fill="#3a2a5c" fill-opacity="0.4"/>
  <circle cx="142.6" cy="141" r="92" fill="none" stroke="#8f6fd9" stroke-width="4"/>
  <circle cx="142.6" cy="141" r="80" fill="none" stroke="#8f6fd9" stroke-width="1.5"/>
  <polygon points="222.6,141 142.6,221 62.6,141 142.6,61" fill="none" stroke="#b9a6ec" stroke-width="2.5" stroke-linejoin="round"/>
  <polygon points="199.1,197.6 86,197.6 86,84.4 199.1,84.4" fill="none" stroke="#b9a6ec" stroke-width="2.5" stroke-linejoin="round"/>
  <polygon points="142.6,89 187.6,167 97.5,167" fill="none" stroke="#8f6fd9" stroke-width="3" stroke-linejoin="round"/>
  <circle cx="142.6" cy="141" r="9" fill="#e6dcff"/>
  <line x1="228.6" y1="141" x2="244.6" y2="141" stroke="#c8b8f0" stroke-width="2" stroke-linecap="round"/>
  <line x1="222" y1="173.9" x2="231.3" y2="177.8" stroke="#c8b8f0" stroke-width="2" stroke-linecap="round"/>
  <line x1="203.4" y1="201.8" x2="210.4" y2="208.9" stroke="#c8b8f0" stroke-width="2" stroke-linecap="round"/>
  <line x1="175.5" y1="220.5" x2="179.3" y2="229.7" stroke="#c8b8f0" stroke-width="2" stroke-linecap="round"/>
  <line x1="142.6" y1="227" x2="142.6" y2="243" stroke="#c8b8f0" stroke-width="2" stroke-linecap="round"/>
  <line x1="109.7" y1="220.5" x2="105.8" y2="229.7" stroke="#c8b8f0" stroke-width="2" stroke-linecap="round"/>
  <line x1="81.8" y1="201.8" x2="74.7" y2="208.9" stroke="#c8b8f0" stroke-width="2" stroke-linecap="round"/>
  <line x1="63.1" y1="173.9" x2="53.9" y2="177.8" stroke="#c8b8f0" stroke-width="2" stroke-linecap="round"/>
  <line x1="56.6" y1="141" x2="40.6" y2="141" stroke="#c8b8f0" stroke-width="2" stroke-linecap="round"/>
  <line x1="63.1" y1="108.1" x2="53.9" y2="104.3" stroke="#c8b8f0" stroke-width="2" stroke-linecap="round"/>
  <line x1="81.8" y1="80.2" x2="74.7" y2="73.1" stroke="#c8b8f0" stroke-width="2" stroke-linecap="round"/>
  <line x1="109.7" y1="61.6" x2="105.8" y2="52.3" stroke="#c8b8f0" stroke-width="2" stroke-linecap="round"/>
  <line x1="142.6" y1="55" x2="142.6" y2="39" stroke="#c8b8f0" stroke-width="2" stroke-linecap="round"/>
  <line x1="175.5" y1="61.6" x2="179.3" y2="52.3" stroke="#c8b8f0" stroke-width="2" stroke-linecap="round"/>
  <line x1="203.4" y1="80.2" x2="210.4" y2="73.1" stroke="#c8b8f0" stroke-width="2" stroke-linecap="round"/>
  <line x1="222" y1="108.1" x2="231.3" y2="104.3" stroke="#c8b8f0" stroke-width="2" stroke-linecap="round"/>
</svg>
