<?xml version="1.0" encoding="utf-8"?>
<svg xmlns="http://www.w3.org/2000/svg" viewBox="0 0 500 500" xmlns:bx="https://boxy-svg.com" width="500px" height="500px"><defs><pattern id="pattern-1" viewBox="0 0 100 100" patternUnits="userSpaceOnUse" preserveAspectRatio="none" width="100" height="100"><rect x="-1.328" y="-2.132" width="103.647" height="103.294" style="stroke: rgb(0, 0, 0); fill: rgb(255, 241, 0);"/><rect x="0.227" y="33.261" width="99.721" height="36.172" style="stroke: rgb(0, 0, 0);"/></pattern></defs><path d="M 34.498 70.248 L 64.699 119.432 L 4.296 119.432 L 34.498 70.248 Z" style="stroke: rgb(0, 0, 0); stroke-linejoin: round; stroke-linecap: round; stroke-width: 31px;" transform="matrix(-0.000023, -1, 1, -0.000023, -58.035301, 143.67125)"/><path d="M 458.135 191.051 Q 458.135 183.912 464.635 179.793 Q 471.576 175.394 480.651 178.052 Q 490.738 181.005 497.133 191.051 Q 504.318 202.337 503.166 217.05 Q 501.878 233.501 490.633 247.34 Q 478.18 262.666 458.135 269.047 Q 436.157 276.043 412.637 269.855 Q 387.084 263.133 368.073 243.048 Q 347.581 221.399 341.141 191.051" style="stroke: rgb(0, 0, 0); fill: rgba(255, 246, 246, 0); stroke-width: 16.0926px;" transform="matrix(0.705258, -0.424604, 0.216422, 0.359473, 33.344776, 144.214328)"/><path d="M 362.728 139.532 C 363.758 137.821 363.042 135.552 360.581 132.725 C 357.952 129.706 354.312 127.231 349.662 125.299 C 344.493 123.151 339.681 122.376 335.225 122.974 C 330.218 123.644 326.924 125.906 325.343 129.758 C 323.575 134.065 324.336 139.468 327.627 145.968 C 331.27 153.166 337.344 160.366 345.848 167.57 C 355.172 175.468 365.81 182.004 377.761 187.179 C 390.745 192.801 403.156 195.896 414.992 196.464 C 427.75 197.077 437.833 194.658 445.239 189.208" style="stroke: rgb(0, 0, 0); fill: rgba(255, 246, 246, 0); stroke-width: 10px;" transform="matrix(-1, 0, 0, -1, 769.655003, 319.335607)"/><ellipse style="stroke: rgb(0, 0, 0); fill: rgb(255, 245, 0); paint-order: fill;" cx="105.196" cy="261.812" rx="105.668" ry="154.168" transform="matrix(-0.000015, 1, -1, -0.000015, 452.764159, 0.955084)"/><rect x="84.034" y="13.249" width="34.093" height="184.693" style="stroke: rgb(0, 0, 0); opacity: 1;"/><rect x="163.075" y="1.951" width="34.093" height="208.588" style="stroke: rgb(0, 0, 0); opacity: 1;"/><rect x="241.34" y="9.465" width="30.971" height="196.358" style="stroke: rgb(0, 0, 0); opacity: 1;"/></svg>