<svg xmlns="http://www.w3.org/2000/svg" width="300" height="300" viewBox="0 0 300 300">
  <rect x="57" y="91.9" width="18" height="18" fill="#a37a12" rx="3"/>
  <rect x="59" y="93.9" width="14" height="14" fill="#d4a017" rx="2"/>
  <rect x="85" y="91.9" width="18" height="18" fill="#a37a12" rx="3"/>
  <rect x="87" y="93.9" width="14" height="14" fill="#d4a017" rx="2"/>
  <circle cx="94" cy="100.9" r="5.5" fill="#c9ced3"/>
  <circle cx="92.2" cy="99.1" r="2" fill="#ffffff"/>
  <rect x="113" y="91.9" width="18" height="18" fill="#a37a12" rx="3"/>
  <rect x="115" y="93.9" width="14" height="14" fill="#d4a017" rx="2"/>
  <rect x="141" y="91.9" width="18" height="18" fill="#a37a12" rx="3"/>
  <rect x="143" y="93.9" width="14" height="14" fill="#d4a017" rx="2"/>
  <rect x="169" y="91.9" width="18" height="18" fill="#a37a12" rx="3"/>
  <rect x="171" y="93.9" width="14" height="14" fill="#d4a017" rx="2"/>
  <circle cx="178" cy="100.9" r="5.5" fill="#c9ced3"/>
  <circle cx="176.2" cy="99.1" r="2" fill="#ffffff"/>
  <rect x="197" y="91.9" width="18" height="18" fill="#a37a12" rx="3"/>
  <rect x="199" y="93.9" width="14" height="14" fill="#d4a017" rx="2"/>
  <circle cx="206" cy="100.9" r="5.5" fill="#c9ced3"/>
  <circle cx="204.2" cy="99.1" r="2" fill="#ffffff"/>
  <rect x="225" y="91.9" width="18" height="18" fill="#a37a12" rx="3"/>
  <rect x="227" y="93.9" width="14" height="14" fill="#d4a017" rx="2"/>
  <rect x="50" y="84.9" width="200" height="32" fill="none" stroke="#e8eef2" stroke-width="1.5" stroke-dasharray="6 4" rx="4"/>
  <rect x="71" y="139.2" width="18" height="18" fill="#a37a12" rx="3"/>
  <rect x="73" y="141.2" width="14" height="14" fill="#d4a017" rx="2"/>
  <rect x="99" y="139.2" width="18" height="18" fill="#a37a12" rx="3"/>
  <rect x="101" y="141.2" width="14" height="14" fill="#d4a017" rx="2"/>
  <rect x="127" y="139.2" width="18" height="18" fill="#a37a12" rx="3"/>
  <rect x="129" y="141.2" width="14" height="14" fill="#d4a017" rx="2"/>
  <rect x="155" y="139.2" width="18" height="18" fill="#a37a12" rx="3"/>
  <rect x="157" y="141.2" width="14" height="14" fill="#d4a017" rx="2"/>
  <circle cx="164" cy="148.2" r="5.5" fill="#c9ced3"/>
  <circle cx="162.2" cy="146.4" r="2" fill="#ffffff"/>
  <rect x="183" y="139.2" width="18" height="18" fill="#a37a12" rx="3"/>
  <rect x="185" y="141.2" width="14" height="14" fill="#d4a017" rx="2"/>
  <rect x="211" y="139.2" width="18" height="18" fill="#a37a12" rx="3"/>
  <rect x="213" y="141.2" width="14" height="14" fill="#d4a017" rx="2"/>
  <rect x="64" y="132.2" width="172" height="32" fill="none" stroke="#e8eef2" stroke-width="1.5" stroke-dasharray="6 4" rx="4"/>
  <rect x="57" y="190.8" width="18" height="18" fill="#a37a12" rx="3"/>
  <rect x="59" y="192.8" width="14" height="14" fill="#d4a017" rx="2"/>
  <circle cx="66" cy="199.8" r="5.5" fill="#c9ced3"/>
  <circle cx="64.2" cy="198" r="2" fill="#ffffff"/>
  <rect x="85" y="190.8" width="18" height="18" fill="#a37a12" rx="3"/>
  <rect x="87" y="192.8" width="14" height="14" fill="#d4a017" rx="2"/>
  <rect x="113" y="190.8" width="18" height="18" fill="#a37a12" rx="3"/>
  <rect x="115" y="192.8" width="14" height="14" fill="#d4a017" rx="2"/>
  <circle cx="122" cy="199.8" r="5.5" fill="#c9ced3"/>
  <circle cx="120.2" cy="198" r="2" fill="#ffffff"/>
  <rect x="141" y="190.8" width="18" height="18" fill="#a37a12" rx="3"/>
  <rect x="143" y="192.8" width="14" height="14" fill="#d4a017" rx="2"/>
  <rect x="169" y="190.8" width="18" height="18" fill="#a37a12" rx="3"/>
  <rect x="171" y="192.8" width="14" height="14" fill="#d4a017" rx="2"/>
  <circle cx="178" cy="199.8" r="5.5" fill="#c9ced3"/>
  <circle cx="176.2" cy="198" r="2" fill="#ffffff"/>
  <rect x="197" y="190.8" width="18" height="18" fill="#a37a12" rx="3"/>
  <rect x="199" y="192.8" width="14" height="14" fill="#d4a017" rx="2"/>
  <circle cx="206" cy="199.8" r="5.5" fill="#c9ced3"/>
  <circle cx="204.2" cy="198" r="2" fill="#ffffff"/>
  <rect x="225" y="190.8" width="18" height="18" fill="#a37a12" rx="3"/>
  <rect x="227" y="192.8" width="14" height="14" fill="#d4a017" rx="2"/>
  <rect x="50" y="183.8" width="200" height="32" fill="none" stroke="#e8eef2" stroke-width="1.5" stroke-dasharray="6 4" rx="4"/>
</svg>
