<svg xmlns="http://www.w3.org/2000/svg" width="300" height="300" viewBox="0 0 300 300">
  <rect width="300" height="300" fill="#00d0ff"/>
  <line x1="33.3" y1="38.1" x2="234.5" y2="38.1" stroke="#7de8ff" stroke-width="4" stroke-linecap="round"/>
  <line x1="53.3" y1="47.1" x2="204.5" y2="47.1" stroke="#33dcff" stroke-width="2.5" stroke-linecap="round"/>
  <line x1="55.4" y1="82.5" x2="275.5" y2="82.5" stroke="#7de8ff" stroke-width="4" stroke-linecap="round"/>
  <line x1="75.4" y1="91.5" x2="245.5" y2="91.5" stroke="#33dcff" stroke-width="2.5" stroke-linecap="round"/>
  <line x1="57.6" y1="138.5" x2="246.5" y2="138.5" stroke="#7de8ff" stroke-width="4" stroke-linecap="round"/>
  <line x1="77.6" y1="147.5" x2="216.5" y2="147.5" stroke="#33dcff" stroke-width="2.5" stroke-linecap="round"/>
  <line x1="22" y1="190.3" x2="241.9" y2="190.3" stroke="#7de8ff" stroke-width="4" stroke-linecap="round"/>
  <line x1="42" y1="199.3" x2="211.9" y2="199.3" stroke="#33dcff" stroke-width="2.5" stroke-linecap="round"/>
  <line x1="50.1" y1="240.7" x2="273.4" y2="240.7" stroke="#7de8ff" stroke-width="4" stroke-linecap="round"/>
  <line x1="70.1" y1="249.7" x2="243.4" y2="249.7" stroke="#33dcff" stroke-width="2.5" stroke-linecap="round"/>
  <circle cx="251" cy="24.6" r="5.1" fill="#33dcff"/>
  <circle cx="251" cy="24.6" r="5.1" fill="none" stroke="#ccf6ff" stroke-width="2"/>
  <circle cx="249.2" cy="22.8" r="1.4" fill="#ffffff"/>
  <circle cx="185.8" cy="143.1" r="6.7" fill="#33dcff"/>
  <circle cx="185.8" cy="143.1" r="6.7" fill="none" stroke="#ccf6ff" stroke-width="2"/>
  <circle cx="183.4" cy="140.7" r="1.9" fill="#ffffff"/>
  <circle cx="239.7" cy="246" r="5.3" fill="#33dcff"/>
  <circle cx="239.7" cy="246" r="5.3" fill="none" stroke="#ccf6ff" stroke-width="2"/>
  <circle cx="237.8" cy="244.2" r="1.5" fill="#ffffff"/>
  <circle cx="177.9" cy="92.1" r="8.8" fill="#33dcff"/>
  <circle cx="177.9" cy="92.1" r="8.8" fill="none" stroke="#ccf6ff" stroke-width="2"/>
  <circle cx="174.8" cy="89" r="2.5" fill="#ffffff"/>
  <circle cx="223.3" cy="142.8" r="6.1" fill="#33dcff"/>
  <circle cx="223.3" cy="142.8" r="6.1" fill="none" stroke="#ccf6ff" stroke-width="2"/>
  <circle cx="221.2" cy="140.7" r="1.7" fill="#ffffff"/>
  <circle cx="77.4" cy="145.7" r="4.1" fill="#33dcff"/>
  <circle cx="77.4" cy="145.7" r="4.1" fill="none" stroke="#ccf6ff" stroke-width="2"/>
  <circle cx="75.9" cy="144.2" r="1.2" fill="#ffffff"/>
  <circle cx="101.4" cy="91.9" r="8.6" fill="#33dcff"/>
  <circle cx="101.4" cy="91.9" r="8.6" fill="none" stroke="#ccf6ff" stroke-width="2"/>
  <circle cx="98.4" cy="88.9" r="2.4" fill="#ffffff"/>
  <circle cx="151.1" cy="240.1" r="8.9" fill="#33dcff"/>
  <circle cx="151.1" cy="240.1" r="8.9" fill="none" stroke="#ccf6ff" stroke-width="2"/>
  <circle cx="148" cy="236.9" r="2.5" fill="#ffffff"/>
  <path d="M0,300L0,0L15,0L15,15L15,20C15,36.3 19,36.3 19,52.5C19,68.8 15,68.8 15,85C15,101.3 19,101.3 19,117.5C19,133.8 15,133.8 15,150C15,166.3 19,166.3 19,182.5C19,198.8 15,198.8 15,215C15,231.3 19,231.3 19,247.5C19,263.8 15,263.8 15,280L15,285L15,300Z" fill="#0088aa"/>
  <path d="M0,300L0,0L7.5,0L7.5,7.5L7.5,20C7.5,36.3 9.5,36.3 9.5,52.5C9.5,68.8 7.5,68.8 7.5,85C7.5,101.3 9.5,101.3 9.5,117.5C9.5,133.8 7.5,133.8 7.5,150C7.5,166.3 9.5,166.3 9.5,182.5C9.5,198.8 7.5,198.8 7.5,215C7.5,231.3 9.5,231.3 9.5,247.5C9.5,263.8 7.5,263.8 7.5,280L7.5,292.5L7.5,300Z" fill="#00a8d4"/>
  <path d="M15,300L15,285L15,280C15,263.8 19,263.8 19,247.5C19,231.3 15,231.3 15,215C15,198.8 19,198.8 19,182.5C19,166.3 15,166.3 15,150C15,133.8 19,133.8 19,117.5C19,101.3 15,101.3 15,85C15,68.8 19,68.8 19,52.5C19,36.3 15,36.3 15,20L15,15L15,0" fill="none" stroke="#ccf6ff" stroke-width="2.5" stroke-linejoin="round" stroke-linecap="round"/>
</svg>
